<svg xmlns="http://www.w3.org/2000/svg" viewBox="0 0 586.89 93.39"><path d="M577.71 43.86a9.18 9.18 0 119.18-9.18 9.18 9.18 0 01-9.18 9.18zm0-17.41a8.22 8.22 0 108.12 8.22 8.24 8.24 0 00-8.12-8.22zm2.44 13.05l-2.51-4.13H576v4.13h-1.14v-9.92h3.25a3 3 0 013.15 2.92 2.83 2.83 0 01-2.31 2.77l2.56 4.23zm-2.21-8.83h-2v3.63h2a1.83 1.83 0 100-3.62zm-131.75-4.94c-.31 0-.41.1-3.18.21s-8.24.22-19.15.22h-13.25c-10.91 0-16.3-.1-19.15-.22s-2.87-.21-3.18-.21c-1.27 0-1.27.85-1.27 3.28v9.74c0 .53 0 1.8 1.06 1.8s1.37-.43 3.28-4.34c1.24-2.71 3.74-6.63 18.13-6.76 1.49.05 2.12.39 2.12 2.74v49.2c0 4.13 0 7-5.3 7.3-2.22.21-3.69.32-3.69 1.8s1.37 1.58 2.22 1.58c2 0 10.58-.42 12.38-.42 3.5 0 9 .42 12.49.42.85 0 2.22 0 2.22-1.58s-1.48-1.7-3.71-1.8c-5.29-.32-5.29-3.18-5.29-7.51V32.93c0-2.75.34-3.33 3.43-3.46 13.18.36 15.57 4.11 16.77 6.74 1.91 3.91 2.12 4.34 3.28 4.34s1.06-1.27 1.06-1.8V29c0-2.42 0-3.27-1.27-3.27zM331.8 75.25c-1 0-1.16.42-3.07 4.12-4.65 9-11.21 9-15.87 9-8.89 0-11.11-1.16-11.11-8.68V61.5c0-3.17.84-3.17 5.92-3.17 8.68 0 11.65.1 13.87 8.26.53 2 1.16 2.54 2 2.54 1.27 0 1.27-1.48 1.27-2.12 0-.85-.32-4.55-.32-5.29 0-2.33.74-13.23.74-14.7 0-1.16-.53-1.49-1.16-1.49s-1.06.22-1.59 1.59c-1.91 5.61-2.85 7.93-14.6 7.93-6.13 0-6.13-.85-6.13-4.23V35.46c0-5.29.42-6 5.71-6 15 0 17.56 4 18.84 6.77 1.91 3.91 2.12 4.34 3.28 4.34s1.06-1.27 1.06-1.8V29c0-2.43 0-3.28-1.27-3.28-.32 0-.42.1-3.17.21s-8.26.22-19.15.22H302c-9 0-13.55-.1-15.87-.22a23.93 23.93 0 01-2.65-.21c-.74 0-2.12 0-2.12 1.49s1.49 1.69 3.81 1.79c5.29.32 5.29 3.17 5.29 7.51v44.67c0 4.34 0 7.2-5.29 7.51-2.22.21-3.81.32-3.81 1.8s1.38 1.58 2.22 1.58 1.59-.11 3.29-.21 4.34-.21 8.68-.21h1.26c.64 0 5.61.1 11.65.21s13.54.21 18.93.21c3.08 0 4.13-1.16 4.23-3.18.32-3.91 1.49-10.69 1.49-12.06-.04-.62-.35-1.58-1.31-1.58zm172.71 0c-1 0-1.16.42-3.07 4.12-4.65 9-11.21 9-15.87 9-8.89 0-11.11-1.16-11.11-8.68V61.5c0-3.17.84-3.17 5.92-3.17 8.68 0 11.65.1 13.87 8.26.53 2 1.16 2.54 2 2.54 1.27 0 1.27-1.48 1.27-2.12 0-.85-.32-4.55-.32-5.29 0-2.33.74-13.23.74-14.7 0-1.16-.53-1.49-1.16-1.49s-1.06.22-1.59 1.59c-1.91 5.61-2.85 7.93-14.6 7.93-6.13 0-6.13-.85-6.13-4.23V35.46c0-5.29.42-6 5.71-6 15 0 17.56 4 18.84 6.77 1.91 3.91 2.12 4.34 3.28 4.34s1.06-1.27 1.06-1.8V29c0-2.43 0-3.28-1.27-3.28-.32 0-.42.1-3.17.21s-8.26.22-19.15.22H302c-9 0-13.55-.1-15.87-.22a23.93 23.93 0 01-2.65-.21c-.74 0-2.12 0-2.12 1.49s1.49 1.69 3.81 1.79c5.29.32 5.29 3.17 5.29 7.51v44.67c0 4.34 0 7.2-5.29 7.51-2.22.21-3.81.32-3.81 1.8s1.38 1.58 2.22 1.58 1.59-.11 3.29-.21 4.34-.21 8.68-.21h1.26c.64 0 5.61.1 11.65.21s13.54.21 18.93.21c3.08 0 4.13-1.16 4.23-3.18.32-3.91 1.49-10.69 1.49-12.06-.04-.62-.35-1.58-1.31-1.58z" fill="var(--text-primary)"/></svg>